<svg width="24" height="24" viewBox="0 0 24 24" fill="none" xmlns="http://www.w3.org/2000/svg">
<path d="M22.75 2C17.227 2 12.75 6.477 12.75 12C12.75 17.523 17.227 22 22.75 22" stroke="black" stroke-width="1.5" stroke-linecap="round" stroke-linejoin="round"/>
<path d="M22.7499 6C19.4364 6 16.7499 8.6865 16.7499 12C16.7499 15.3135 19.4364 18 22.7499 18M4.74994 2L4.49994 7.5M7.24994 2L7.49994 7.5M9.97244 3.179C10.2024 4.538 10.5244 6.9125 10.4984 9.448C10.4854 10.7565 9.61144 11.929 8.23744 12.237C7.95344 12.3005 7.65094 12.358 7.33494 12.4025L8.22694 19.369C8.38394 20.5945 7.62944 21.809 6.40444 21.969C6.25294 21.9885 6.11444 22 5.99994 22C5.86445 21.9973 5.72922 21.9868 5.59494 21.9685C4.36994 21.8085 3.61594 20.5945 3.77294 19.369L4.66494 12.4025C4.3622 12.3595 4.0613 12.3045 3.76294 12.2375C2.38844 11.929 1.51444 10.756 1.50094 9.4475C1.47544 6.9125 1.79644 4.5385 2.02644 3.1795C2.14344 2.487 2.74944 2 3.45144 2H8.54744C9.24994 2 9.85544 2.4865 9.97244 3.179Z" stroke="black" stroke-width="1.5" stroke-linecap="round" stroke-linejoin="round"/>
</svg>
